<svg width="137" height="26" viewBox="0 0 137 26" fill="none" xmlns="http://www.w3.org/2000/svg">
<path d="M22.9 0.0599996V21H18.7V7.38L13.09 21H9.91L4.27 7.38V21H0.0700002V0.0599996H4.84L11.5 15.63L18.16 0.0599996H22.9ZM44.4224 0.0599996V21H40.2224V12.09H31.2524V21H27.0524V0.0599996H31.2524V8.67H40.2224V0.0599996H44.4224Z" fill="#5160E4"/>
<path d="M54.1958 16.257C54.1958 15.305 54.3828 14.4607 54.7568 13.724C55.1421 12.9873 55.6578 12.4207 56.3038 12.024C56.9611 11.6273 57.6921 11.429 58.4968 11.429C59.1994 11.429 59.8114 11.5707 60.3328 11.854C60.8654 12.1373 61.2904 12.4943 61.6078 12.925V11.582H64.0048V21H61.6078V19.623C61.3018 20.065 60.8768 20.4333 60.3328 20.728C59.8001 21.0113 59.1824 21.153 58.4798 21.153C57.6864 21.153 56.9611 20.949 56.3038 20.541C55.6578 20.133 55.1421 19.5607 54.7568 18.824C54.3828 18.076 54.1958 17.2203 54.1958 16.257ZM61.6078 16.291C61.6078 15.713 61.4944 15.22 61.2678 14.812C61.0411 14.3927 60.7351 14.0753 60.3498 13.86C59.9644 13.6333 59.5508 13.52 59.1088 13.52C58.6668 13.52 58.2588 13.6277 57.8848 13.843C57.5108 14.0583 57.2048 14.3757 56.9668 14.795C56.7401 15.203 56.6268 15.6903 56.6268 16.257C56.6268 16.8237 56.7401 17.3223 56.9668 17.753C57.2048 18.1723 57.5108 18.4953 57.8848 18.722C58.2701 18.9487 58.6781 19.062 59.1088 19.062C59.5508 19.062 59.9644 18.9543 60.3498 18.739C60.7351 18.5123 61.0411 18.195 61.2678 17.787C61.4944 17.3677 61.6078 16.869 61.6078 16.291ZM65.7172 16.291C65.7172 15.3163 65.9156 14.4663 66.3123 13.741C66.7089 13.0043 67.2586 12.4377 67.9613 12.041C68.6639 11.633 69.4686 11.429 70.3753 11.429C71.5426 11.429 72.5059 11.7237 73.2653 12.313C74.0359 12.891 74.5516 13.707 74.8123 14.761H72.2453C72.1093 14.353 71.8769 14.0357 71.5483 13.809C71.2309 13.571 70.8343 13.452 70.3583 13.452C69.6783 13.452 69.1399 13.7013 68.7433 14.2C68.3466 14.6873 68.1483 15.3843 68.1483 16.291C68.1483 17.1863 68.3466 17.8833 68.7433 18.382C69.1399 18.8693 69.6783 19.113 70.3583 19.113C71.3216 19.113 71.9506 18.6823 72.2453 17.821H74.8123C74.5516 18.841 74.0359 19.6513 73.2653 20.252C72.4946 20.8527 71.5313 21.153 70.3753 21.153C69.4686 21.153 68.6639 20.9547 67.9613 20.558C67.2586 20.15 66.7089 19.5833 66.3123 18.858C65.9156 18.1213 65.7172 17.2657 65.7172 16.291ZM75.9438 16.257C75.9438 15.305 76.1308 14.4607 76.5048 13.724C76.8901 12.9873 77.4058 12.4207 78.0518 12.024C78.7091 11.6273 79.4401 11.429 80.2448 11.429C80.9475 11.429 81.5595 11.5707 82.0808 11.854C82.6135 12.1373 83.0385 12.4943 83.3558 12.925V11.582H85.7528V21H83.3558V19.623C83.0498 20.065 82.6248 20.4333 82.0808 20.728C81.5481 21.0113 80.9305 21.153 80.2278 21.153C79.4345 21.153 78.7091 20.949 78.0518 20.541C77.4058 20.133 76.8901 19.5607 76.5048 18.824C76.1308 18.076 75.9438 17.2203 75.9438 16.257ZM83.3558 16.291C83.3558 15.713 83.2425 15.22 83.0158 14.812C82.7891 14.3927 82.4831 14.0753 82.0978 13.86C81.7125 13.6333 81.2988 13.52 80.8568 13.52C80.4148 13.52 80.0068 13.6277 79.6328 13.843C79.2588 14.0583 78.9528 14.3757 78.7148 14.795C78.4881 15.203 78.3748 15.6903 78.3748 16.257C78.3748 16.8237 78.4881 17.3223 78.7148 17.753C78.9528 18.1723 79.2588 18.4953 79.6328 18.722C80.0181 18.9487 80.4261 19.062 80.8568 19.062C81.2988 19.062 81.7125 18.9543 82.0978 18.739C82.4831 18.5123 82.7891 18.195 83.0158 17.787C83.2425 17.3677 83.3558 16.869 83.3558 16.291ZM87.4653 16.257C87.4653 15.305 87.6523 14.4607 88.0263 13.724C88.4116 12.9873 88.933 12.4207 89.5903 12.024C90.2476 11.6273 90.9786 11.429 91.7833 11.429C92.3953 11.429 92.979 11.565 93.5343 11.837C94.0896 12.0977 94.5316 12.449 94.8603 12.891V8.42H97.2743V21H94.8603V19.606C94.5656 20.0707 94.152 20.4447 93.6193 20.728C93.0866 21.0113 92.469 21.153 91.7663 21.153C90.973 21.153 90.2476 20.949 89.5903 20.541C88.933 20.133 88.4116 19.5607 88.0263 18.824C87.6523 18.076 87.4653 17.2203 87.4653 16.257ZM94.8773 16.291C94.8773 15.713 94.764 15.22 94.5373 14.812C94.3106 14.3927 94.0046 14.0753 93.6193 13.86C93.234 13.6333 92.8203 13.52 92.3783 13.52C91.9363 13.52 91.5283 13.6277 91.1543 13.843C90.7803 14.0583 90.4743 14.3757 90.2363 14.795C90.0096 15.203 89.8963 15.6903 89.8963 16.257C89.8963 16.8237 90.0096 17.3223 90.2363 17.753C90.4743 18.1723 90.7803 18.4953 91.1543 18.722C91.5396 18.9487 91.9476 19.062 92.3783 19.062C92.8203 19.062 93.234 18.9543 93.6193 18.739C94.0046 18.5123 94.3106 18.195 94.5373 17.787C94.764 17.3677 94.8773 16.869 94.8773 16.291ZM108.354 16.087C108.354 16.427 108.331 16.733 108.286 17.005H101.401C101.457 17.685 101.695 18.2177 102.115 18.603C102.534 18.9883 103.05 19.181 103.662 19.181C104.546 19.181 105.175 18.8013 105.549 18.042H108.116C107.844 18.9487 107.322 19.6967 106.552 20.286C105.781 20.864 104.835 21.153 103.713 21.153C102.806 21.153 101.99 20.9547 101.265 20.558C100.551 20.15 99.9898 19.5777 99.5818 18.841C99.1851 18.1043 98.9868 17.2543 98.9868 16.291C98.9868 15.3163 99.1851 14.4607 99.5818 13.724C99.9784 12.9873 100.534 12.4207 101.248 12.024C101.962 11.6273 102.783 11.429 103.713 11.429C104.608 11.429 105.407 11.6217 106.11 12.007C106.824 12.3923 107.373 12.942 107.759 13.656C108.155 14.3587 108.354 15.169 108.354 16.087ZM105.889 15.407C105.877 14.795 105.656 14.3077 105.226 13.945C104.795 13.571 104.268 13.384 103.645 13.384C103.055 13.384 102.557 13.5653 102.149 13.928C101.752 14.2793 101.508 14.7723 101.418 15.407H105.889ZM121.787 11.446C122.943 11.446 123.872 11.803 124.575 12.517C125.289 13.2197 125.646 14.2057 125.646 15.475V21H123.266V15.798C123.266 15.0613 123.079 14.5003 122.705 14.115C122.331 13.7183 121.821 13.52 121.175 13.52C120.529 13.52 120.013 13.7183 119.628 14.115C119.254 14.5003 119.067 15.0613 119.067 15.798V21H116.687V15.798C116.687 15.0613 116.5 14.5003 116.126 14.115C115.752 13.7183 115.242 13.52 114.596 13.52C113.939 13.52 113.417 13.7183 113.032 14.115C112.658 14.5003 112.471 15.0613 112.471 15.798V21H110.091V11.582H112.471V12.721C112.777 12.3243 113.168 12.0127 113.644 11.786C114.131 11.5593 114.664 11.446 115.242 11.446C115.979 11.446 116.636 11.6047 117.214 11.922C117.792 12.228 118.24 12.67 118.557 13.248C118.863 12.704 119.305 12.2677 119.883 11.939C120.472 11.6103 121.107 11.446 121.787 11.446ZM136.914 11.582L131.083 25.454H128.55L130.59 20.762L126.816 11.582H129.485L131.916 18.161L134.381 11.582H136.914Z" fill="#718096"/>
</svg>
